<svg width="105" height="44" viewBox="0 0 105 44" fill="none" xmlns="http://www.w3.org/2000/svg">
<path d="M20.0001 41V5L20.4068 5.23729L32 12" stroke="white" stroke-width="2"/>
<path d="M20 12L32 19" stroke="white" stroke-width="2"/>
<path d="M20 20L32 27" stroke="white" stroke-width="2"/>
<path d="M12.9999 41V5L12.5932 5.23729L1 12" stroke="white" stroke-width="2"/>
<path d="M13 12L1 19" stroke="white" stroke-width="2"/>
<path d="M13 20L1 27" stroke="white" stroke-width="2"/>
<path d="M46.4972 16H47.9943V11.9915L49.5398 10.2528L53.8381 16H55.6491L50.4574 9.21449L55.6491 3.63636H53.6932L48.1392 9.76989H47.9943V3.63636H46.4972V16ZM70.4378 9.81818C70.4378 5.90625 68.1437 3.46733 64.9804 3.46733C61.817 3.46733 59.523 5.90625 59.523 9.81818C59.523 13.7301 61.817 16.169 64.9804 16.169C68.1437 16.169 70.4378 13.7301 70.4378 9.81818ZM68.9889 9.81818C68.9889 13.0298 67.2261 14.7685 64.9804 14.7685C62.7346 14.7685 60.9719 13.0298 60.9719 9.81818C60.9719 6.60653 62.7346 4.8679 64.9804 4.8679C67.2261 4.8679 68.9889 6.60653 68.9889 9.81818ZM75.9552 16H77.4523V11.1705H80.1569C80.2655 11.1705 80.3682 11.1705 80.4708 11.1644L83.0787 16H84.8174L82.0223 10.8928C83.5979 10.3555 84.3344 9.0696 84.3344 7.42756C84.3344 5.24219 83.0305 3.63636 80.1327 3.63636H75.9552V16ZM77.4523 9.81818V4.96449H80.0844C82.0887 4.96449 82.8614 5.94247 82.8614 7.42756C82.8614 8.91264 82.0887 9.81818 80.1086 9.81818H77.4523ZM90.3363 16L91.5799 12.4986H96.5785L97.8221 16H99.3917L94.8519 3.63636H93.3065L88.7667 16H90.3363ZM92.0508 11.1705L94.0309 5.59233H94.1275L96.1076 11.1705H92.0508Z" fill="white"/>
<path d="M51.5682 41C56.8864 41 59.9631 37.7017 59.9631 32.2472C59.9631 26.8182 56.8864 23.5455 51.7472 23.5455H45.9176V41H51.5682ZM48.5511 38.6989V25.8466H51.5852C55.4034 25.8466 57.3722 28.1307 57.3722 32.2472C57.3722 36.3807 55.4034 38.6989 51.4233 38.6989H48.5511ZM78.3999 32.2727C78.3999 26.6903 75.0589 23.3068 70.5419 23.3068C66.0078 23.3068 62.6754 26.6903 62.6754 32.2727C62.6754 37.8466 66.0078 41.2386 70.5419 41.2386C75.0589 41.2386 78.3999 37.8551 78.3999 32.2727ZM75.7919 32.2727C75.7919 36.5256 73.5419 38.8352 70.5419 38.8352C67.5334 38.8352 65.2919 36.5256 65.2919 32.2727C65.2919 28.0199 67.5334 25.7102 70.5419 25.7102C73.5419 25.7102 75.7919 28.0199 75.7919 32.2727ZM81.6832 23.5455V41H84.1889V28.3608H84.3509L89.4986 40.9744H91.5781L96.7259 28.3693H96.8878V41H99.3935V23.5455H96.1974L90.6406 37.1136H90.4361L84.8793 23.5455H81.6832Z" fill="white"/>
</svg>
